<?xml version="1.0" encoding="UTF-8" standalone="no"?>

<svg height="120" viewBox="0 0 120 120" width="120" x="0px" y="0px">
    <g transform="matrix(2.1483754,0,0,2.1578319,0.91547818,1.713266)">
        <path d="m 33.233,35.1 10.102,10.1 c 0.752,0.75 1.217,1.783 1.217,2.932 0,2.287 -1.855,4.143 -4.146,4.143 -1.145,0 -2.178,-0.463 -2.932,-1.211 l -10.102,-10.103 -10.1,10.1 c -0.75,0.75 -1.787,1.211 -2.934,1.211 -2.284,0 -4.143,-1.854 -4.143,-4.141 0,-1.146 0.465,-2.184 1.212,-2.934 L 21.511,35.095 11.409,24.995 c -0.747,-0.748 -1.212,-1.785 -1.212,-2.93 0,-2.289 1.854,-4.146 4.146,-4.146 1.143,0 2.18,0.465 2.93,1.214 L 27.372,29.235 37.474,19.132 c 0.754,-0.749 1.787,-1.214 2.934,-1.214 2.289,0 4.146,1.856 4.146,4.145 0,1.146 -0.467,2.18 -1.217,2.932 z"
        style="fill:#FFFFFF;stroke:#000000;stroke-width:3.5" />
        <circle cx="27.371" cy="10.849" r="8.1219997" style="fill:#FFFFFF;stroke:#000000;stroke-width:3.5" />
    </g>
</svg>